<svg xmlns="http://www.w3.org/2000/svg" width="422" height="70" viewBox="0 0 422 70"><title>logo-blackpink-pk</title><g id="contents"><path d="M48.361,39.5a12.333,12.333,0,0,0-1.829-2.549,11.658,11.658,0,0,0-2.347-1.972,12.235,12.235,0,0,0,3.016-4.2,12.49,12.49,0,0,0,1.044-5.018,12.686,12.686,0,0,0-.785-4.408,12.842,12.842,0,0,0-2.231-3.883,10.256,10.256,0,0,0-1.939-1.8,15.644,15.644,0,0,0-2.436-1.422,13.767,13.767,0,0,0-2.668-.928A11.6,11.6,0,0,0,35.546,13H12V58H37.518a11.675,11.675,0,0,0,4.866-1.016,13.031,13.031,0,0,0,3.977-2.723,12.3,12.3,0,0,0,2.667-4,12.5,12.5,0,0,0,.956-4.844,11.07,11.07,0,0,0-.431-2.989A14.57,14.57,0,0,0,48.361,39.5ZM24,22h7.915a4.469,4.469,0,0,1,3.163,7.66A4.313,4.313,0,0,1,31.915,31H24ZM35.576,46.679A4.37,4.37,0,0,1,32.367,48H24V39h8.367a4.37,4.37,0,0,1,3.209,1.321,4.294,4.294,0,0,1,1.316,3.154A4.361,4.361,0,0,1,35.576,46.679Z" fill="#f4a6b8"/><polygon points="72 13 60 13 60 58 96 58 96 47 72 47 72 13" fill="#f4a6b8"/><polygon points="119.192 13 102.555 58 115.248 58 117.568 51.797 120.932 41.302 124.527 29.413 128.062 41.302 131.426 51.797 133.752 58 146.45 58 129.808 13 119.192 13" fill="#f4a6b8"/><path d="M164.933,45.941a10.855,10.855,0,0,0,5.17,1.272,10.538,10.538,0,0,0,4.482-.953,11.4,11.4,0,0,0,3.551-2.549,11.845,11.845,0,0,0,3.238-8.173,11.522,11.522,0,0,0-.865-4.424,12.189,12.189,0,0,0-2.373-3.727,10.791,10.791,0,0,0-3.584-2.541,10.949,10.949,0,0,0-4.5-.927,12.057,12.057,0,0,0-7.058,2.37L153.746,18.2a26.015,26.015,0,0,1,7.685-4.765,23.321,23.321,0,0,1,8.671-1.649,22.936,22.936,0,0,1,9.277,1.877,23.776,23.776,0,0,1,7.515,5.145,24.391,24.391,0,0,1,5.054,7.573,23.6,23.6,0,0,1,0,18.32,24.428,24.428,0,0,1-5.054,7.575,23.853,23.853,0,0,1-7.515,5.143,22.983,22.983,0,0,1-9.277,1.877,23.325,23.325,0,0,1-10.433-2.4,25.067,25.067,0,0,1-8.462-6.788l9.53-7.746A12.962,12.962,0,0,0,164.933,45.941Z" fill="#f4a6b8"/><polygon points="225 13 213 27.797 213 13 201 13 201 57 213 57 213 42.2 225 57 239.2 57 221.903 33.809 239.764 13 225 13" fill="#f4a6b8"/><path d="M283.44,17.037a17.009,17.009,0,0,0-5.209-2.968A17.909,17.909,0,0,0,272.073,13H252V57h12V43h8.073a16.124,16.124,0,0,0,6.159-1.2,17.1,17.1,0,0,0,5.209-3.311,16.217,16.217,0,0,0,3.605-4.9,13.783,13.783,0,0,0,1.347-6.06,12.94,12.94,0,0,0-1.347-5.885A14.313,14.313,0,0,0,283.44,17.037Zm-8.323,12.232a4.773,4.773,0,0,1-1.048,1.418,4.889,4.889,0,0,1-1.541.965,5,5,0,0,1-1.872.349H264V23h6.657a5.007,5.007,0,0,1,1.872.348,4.854,4.854,0,0,1,1.541.962,4.782,4.782,0,0,1,1.048,1.418,4.287,4.287,0,0,1,0,3.541Z" fill="#f4a6b8"/><rect x="297" y="13" width="12" height="44" fill="#f4a6b8"/><polygon points="332 36.731 347.577 13 360 13 360 57 348 57 348 33.495 332.413 57 320 57 320 13 332 13 332 36.731" fill="#f4a6b8"/><polygon points="410.776 13 396.011 13 384 27.8 384 13 372 13 372 57 384 57 384 42.203 396.011 57 410.212 57 392.913 33.812 410.776 13" fill="#f4a6b8"/></g></svg>